<svg width="25" height="24" viewBox="0 0 25 24" fill="none" xmlns="http://www.w3.org/2000/svg">
<path d="M23.5151 18.9828L19.8003 15.2676C19.0604 14.5307 17.8351 14.553 17.0693 15.319L15.1978 17.1902C15.0796 17.125 14.9572 17.0569 14.8285 16.9847C13.6466 16.3298 12.0291 15.4323 10.3269 13.7289C8.61969 12.0219 7.7213 10.4018 7.06444 9.21919C6.99513 9.0939 6.92872 8.9731 6.86314 8.85839L8.11922 7.60417L8.73675 6.98587C9.50363 6.21879 9.52478 4.99381 8.78658 4.25471L5.07176 0.53906C4.33356 -0.198999 3.10768 -0.176608 2.3408 0.590475L1.29384 1.64345L1.32245 1.67185C0.971386 2.1198 0.678029 2.63644 0.459721 3.19358C0.258483 3.72391 0.133192 4.22997 0.0759031 4.73708C-0.414615 8.80358 1.44366 12.5201 6.48678 17.5633C13.4579 24.5339 19.0757 24.0073 19.3181 23.9816C19.8459 23.9185 20.3518 23.7924 20.8659 23.5927C21.4182 23.377 21.9345 23.084 22.3821 22.7337L22.405 22.7541L23.4656 21.7155C24.2309 20.9485 24.253 19.7231 23.5151 18.9828Z" fill="black"/>
</svg>
